<?xml version="1.0" encoding="utf-8" standalone="no"?>
<!DOCTYPE svg PUBLIC "-//W3C//DTD SVG 1.1//EN"
  "http://www.w3.org/Graphics/SVG/1.1/DTD/svg11.dtd">
<svg xmlns:xlink="http://www.w3.org/1999/xlink" width="864pt" height="360pt" viewBox="0 0 864 360" xmlns="http://www.w3.org/2000/svg" version="1.1">
 <metadata>
  <rdf:RDF xmlns:dc="http://purl.org/dc/elements/1.1/" xmlns:cc="http://creativecommons.org/ns#" xmlns:rdf="http://www.w3.org/1999/02/22-rdf-syntax-ns#">
   <cc:Work>
    <dc:type rdf:resource="http://purl.org/dc/dcmitype/StillImage"/>
    <dc:date>2025-11-28T21:04:41.256945</dc:date>
    <dc:format>image/svg+xml</dc:format>
    <dc:creator>
     <cc:Agent>
      <dc:title>Matplotlib v3.10.1, https://matplotlib.org/</dc:title>
     </cc:Agent>
    </dc:creator>
   </cc:Work>
  </rdf:RDF>
 </metadata>
 <defs>
  <style type="text/css">*{stroke-linejoin: round; stroke-linecap: butt}</style>
 </defs>
 <g id="figure_1">
  <g id="patch_1">
   <path d="M 0 360 
L 864 360 
L 864 0 
L 0 0 
z
" style="fill: #ffffff"/>
  </g>
  <g id="axes_1">
   <g id="patch_2">
    <path d="M 106.7025 284.82 
L 823.634102 284.82 
L 823.634102 12.96 
L 106.7025 12.96 
z
" style="fill: #ffffff"/>
   </g>
   <g id="matplotlib.axis_1">
    <g id="xtick_1">
     <g id="line2d_1">
      <path d="M 123.393812 284.82 
L 123.393812 12.96 
" clip-path="url(#p106982caf1)" style="fill: none; stroke-dasharray: 3.7,1.6; stroke-dashoffset: 0; stroke: #808080; stroke-opacity: 0.5"/>
     </g>
     <g id="line2d_2">
      <defs>
       <path id="mcc9b96ad2e" d="M 0 0 
L 0 -3.5 
" style="stroke: #657b83; stroke-width: 0.8"/>
      </defs>
      <g>
       <use xlink:href="#mcc9b96ad2e" x="123.393812" y="284.82" style="fill: #657b83; stroke: #657b83; stroke-width: 0.8"/>
      </g>
     </g>
     <g id="text_1">
      <!-- 0 -->
      <g transform="translate(115.440687 307.316094) scale(0.25 -0.25)">
       <defs>
        <path id="DejaVuSerif-30" d="M 2034 219 
Q 2513 219 2750 744 
Q 2988 1269 2988 2328 
Q 2988 3391 2750 3916 
Q 2513 4441 2034 4441 
Q 1556 4441 1318 3916 
Q 1081 3391 1081 2328 
Q 1081 1269 1318 744 
Q 1556 219 2034 219 
z
M 2034 -91 
Q 1275 -91 848 546 
Q 422 1184 422 2328 
Q 422 3475 848 4112 
Q 1275 4750 2034 4750 
Q 2797 4750 3222 4112 
Q 3647 3475 3647 2328 
Q 3647 1184 3222 546 
Q 2797 -91 2034 -91 
z
" transform="scale(0.015625)"/>
       </defs>
       <use xlink:href="#DejaVuSerif-30"/>
      </g>
     </g>
    </g>
    <g id="xtick_2">
     <g id="line2d_3">
      <path d="M 222.746861 284.82 
L 222.746861 12.96 
" clip-path="url(#p106982caf1)" style="fill: none; stroke-dasharray: 3.7,1.6; stroke-dashoffset: 0; stroke: #808080; stroke-opacity: 0.5"/>
     </g>
     <g id="line2d_4">
      <g>
       <use xlink:href="#mcc9b96ad2e" x="222.746861" y="284.82" style="fill: #657b83; stroke: #657b83; stroke-width: 0.8"/>
      </g>
     </g>
     <g id="text_2">
      <!-- 250 -->
      <g transform="translate(198.887486 307.316094) scale(0.25 -0.25)">
       <defs>
        <path id="DejaVuSerif-32" d="M 819 3553 
L 469 3553 
L 469 4384 
Q 803 4563 1142 4656 
Q 1481 4750 1806 4750 
Q 2534 4750 2956 4397 
Q 3378 4044 3378 3438 
Q 3378 2753 2422 1800 
Q 2347 1728 2309 1691 
L 1131 513 
L 3078 513 
L 3078 1088 
L 3444 1088 
L 3444 0 
L 434 0 
L 434 341 
L 1850 1753 
Q 2319 2222 2519 2614 
Q 2719 3006 2719 3438 
Q 2719 3909 2473 4175 
Q 2228 4441 1797 4441 
Q 1350 4441 1106 4219 
Q 863 3997 819 3553 
z
" transform="scale(0.015625)"/>
        <path id="DejaVuSerif-35" d="M 3219 4666 
L 3219 4153 
L 1081 4153 
L 1081 2816 
Q 1244 2928 1461 2984 
Q 1678 3041 1947 3041 
Q 2703 3041 3140 2622 
Q 3578 2203 3578 1478 
Q 3578 738 3136 323 
Q 2694 -91 1894 -91 
Q 1572 -91 1234 -12 
Q 897 66 544 225 
L 544 1131 
L 897 1131 
Q 925 688 1179 453 
Q 1434 219 1894 219 
Q 2388 219 2653 544 
Q 2919 869 2919 1478 
Q 2919 2084 2655 2407 
Q 2391 2731 1894 2731 
Q 1613 2731 1398 2631 
Q 1184 2531 1019 2322 
L 750 2322 
L 750 4666 
L 3219 4666 
z
" transform="scale(0.015625)"/>
       </defs>
       <use xlink:href="#DejaVuSerif-32"/>
       <use xlink:href="#DejaVuSerif-35" transform="translate(63.623047 0)"/>
       <use xlink:href="#DejaVuSerif-30" transform="translate(127.246094 0)"/>
      </g>
     </g>
    </g>
    <g id="xtick_3">
     <g id="line2d_5">
      <path d="M 322.09991 284.82 
L 322.09991 12.96 
" clip-path="url(#p106982caf1)" style="fill: none; stroke-dasharray: 3.7,1.6; stroke-dashoffset: 0; stroke: #808080; stroke-opacity: 0.5"/>
     </g>
     <g id="line2d_6">
      <g>
       <use xlink:href="#mcc9b96ad2e" x="322.09991" y="284.82" style="fill: #657b83; stroke: #657b83; stroke-width: 0.8"/>
      </g>
     </g>
     <g id="text_3">
      <!-- 500 -->
      <g transform="translate(298.240535 307.316094) scale(0.25 -0.25)">
       <use xlink:href="#DejaVuSerif-35"/>
       <use xlink:href="#DejaVuSerif-30" transform="translate(63.623047 0)"/>
       <use xlink:href="#DejaVuSerif-30" transform="translate(127.246094 0)"/>
      </g>
     </g>
    </g>
    <g id="xtick_4">
     <g id="line2d_7">
      <path d="M 421.452959 284.82 
L 421.452959 12.96 
" clip-path="url(#p106982caf1)" style="fill: none; stroke-dasharray: 3.7,1.6; stroke-dashoffset: 0; stroke: #808080; stroke-opacity: 0.5"/>
     </g>
     <g id="line2d_8">
      <g>
       <use xlink:href="#mcc9b96ad2e" x="421.452959" y="284.82" style="fill: #657b83; stroke: #657b83; stroke-width: 0.8"/>
      </g>
     </g>
     <g id="text_4">
      <!-- 750 -->
      <g transform="translate(397.593584 307.316094) scale(0.25 -0.25)">
       <defs>
        <path id="DejaVuSerif-37" d="M 3609 4347 
L 1784 0 
L 1319 0 
L 3059 4153 
L 903 4153 
L 903 3578 
L 538 3578 
L 538 4666 
L 3609 4666 
L 3609 4347 
z
" transform="scale(0.015625)"/>
       </defs>
       <use xlink:href="#DejaVuSerif-37"/>
       <use xlink:href="#DejaVuSerif-35" transform="translate(63.623047 0)"/>
       <use xlink:href="#DejaVuSerif-30" transform="translate(127.246094 0)"/>
      </g>
     </g>
    </g>
    <g id="xtick_5">
     <g id="line2d_9">
      <path d="M 520.806008 284.82 
L 520.806008 12.96 
" clip-path="url(#p106982caf1)" style="fill: none; stroke-dasharray: 3.7,1.6; stroke-dashoffset: 0; stroke: #808080; stroke-opacity: 0.5"/>
     </g>
     <g id="line2d_10">
      <g>
       <use xlink:href="#mcc9b96ad2e" x="520.806008" y="284.82" style="fill: #657b83; stroke: #657b83; stroke-width: 0.8"/>
      </g>
     </g>
     <g id="text_5">
      <!-- 1000 -->
      <g transform="translate(488.993508 307.316094) scale(0.25 -0.25)">
       <defs>
        <path id="DejaVuSerif-31" d="M 909 0 
L 909 331 
L 1722 331 
L 1722 4213 
L 781 3603 
L 781 4013 
L 1919 4750 
L 2350 4750 
L 2350 331 
L 3163 331 
L 3163 0 
L 909 0 
z
" transform="scale(0.015625)"/>
       </defs>
       <use xlink:href="#DejaVuSerif-31"/>
       <use xlink:href="#DejaVuSerif-30" transform="translate(63.623047 0)"/>
       <use xlink:href="#DejaVuSerif-30" transform="translate(127.246094 0)"/>
       <use xlink:href="#DejaVuSerif-30" transform="translate(190.869141 0)"/>
      </g>
     </g>
    </g>
    <g id="xtick_6">
     <g id="line2d_11">
      <path d="M 620.159058 284.82 
L 620.159058 12.96 
" clip-path="url(#p106982caf1)" style="fill: none; stroke-dasharray: 3.7,1.6; stroke-dashoffset: 0; stroke: #808080; stroke-opacity: 0.5"/>
     </g>
     <g id="line2d_12">
      <g>
       <use xlink:href="#mcc9b96ad2e" x="620.159058" y="284.82" style="fill: #657b83; stroke: #657b83; stroke-width: 0.8"/>
      </g>
     </g>
     <g id="text_6">
      <!-- 1250 -->
      <g transform="translate(588.346558 307.316094) scale(0.25 -0.25)">
       <use xlink:href="#DejaVuSerif-31"/>
       <use xlink:href="#DejaVuSerif-32" transform="translate(63.623047 0)"/>
       <use xlink:href="#DejaVuSerif-35" transform="translate(127.246094 0)"/>
       <use xlink:href="#DejaVuSerif-30" transform="translate(190.869141 0)"/>
      </g>
     </g>
    </g>
    <g id="xtick_7">
     <g id="line2d_13">
      <path d="M 719.512107 284.82 
L 719.512107 12.96 
" clip-path="url(#p106982caf1)" style="fill: none; stroke-dasharray: 3.7,1.6; stroke-dashoffset: 0; stroke: #808080; stroke-opacity: 0.5"/>
     </g>
     <g id="line2d_14">
      <g>
       <use xlink:href="#mcc9b96ad2e" x="719.512107" y="284.82" style="fill: #657b83; stroke: #657b83; stroke-width: 0.8"/>
      </g>
     </g>
     <g id="text_7">
      <!-- 1500 -->
      <g transform="translate(687.699607 307.316094) scale(0.25 -0.25)">
       <use xlink:href="#DejaVuSerif-31"/>
       <use xlink:href="#DejaVuSerif-35" transform="translate(63.623047 0)"/>
       <use xlink:href="#DejaVuSerif-30" transform="translate(127.246094 0)"/>
       <use xlink:href="#DejaVuSerif-30" transform="translate(190.869141 0)"/>
      </g>
     </g>
    </g>
    <g id="xtick_8">
     <g id="line2d_15">
      <path d="M 818.865156 284.82 
L 818.865156 12.96 
" clip-path="url(#p106982caf1)" style="fill: none; stroke-dasharray: 3.7,1.6; stroke-dashoffset: 0; stroke: #808080; stroke-opacity: 0.5"/>
     </g>
     <g id="line2d_16">
      <g>
       <use xlink:href="#mcc9b96ad2e" x="818.865156" y="284.82" style="fill: #657b83; stroke: #657b83; stroke-width: 0.8"/>
      </g>
     </g>
     <g id="text_8">
      <!-- 1750 -->
      <g transform="translate(787.052656 307.316094) scale(0.25 -0.25)">
       <use xlink:href="#DejaVuSerif-31"/>
       <use xlink:href="#DejaVuSerif-37" transform="translate(63.623047 0)"/>
       <use xlink:href="#DejaVuSerif-35" transform="translate(127.246094 0)"/>
       <use xlink:href="#DejaVuSerif-30" transform="translate(190.869141 0)"/>
      </g>
     </g>
    </g>
    <g id="text_9">
     <!-- Gradient Step -->
     <g transform="translate(358.553457 339.310625) scale(0.3 -0.3)">
      <defs>
       <path id="DejaVuSerif-47" d="M 4097 3272 
Q 3988 3856 3641 4136 
Q 3294 4416 2675 4416 
Q 1869 4416 1472 3897 
Q 1075 3378 1075 2328 
Q 1075 1300 1484 772 
Q 1894 244 2688 244 
Q 3041 244 3362 331 
Q 3684 419 3975 594 
L 3975 1797 
L 3097 1797 
L 3097 2131 
L 4609 2131 
L 4609 391 
Q 4194 150 3714 29 
Q 3234 -91 2688 -91 
Q 1631 -91 995 570 
Q 359 1231 359 2328 
Q 359 3434 996 4092 
Q 1634 4750 2713 4750 
Q 3113 4750 3539 4658 
Q 3966 4566 4447 4378 
L 4447 3272 
L 4097 3272 
z
" transform="scale(0.015625)"/>
       <path id="DejaVuSerif-72" d="M 3059 3328 
L 3059 2497 
L 2728 2497 
Q 2713 2744 2591 2866 
Q 2469 2988 2234 2988 
Q 1809 2988 1582 2694 
Q 1356 2400 1356 1850 
L 1356 331 
L 2022 331 
L 2022 0 
L 263 0 
L 263 331 
L 781 331 
L 781 2994 
L 231 2994 
L 231 3322 
L 1356 3322 
L 1356 2731 
Q 1525 3078 1790 3245 
Q 2056 3413 2438 3413 
Q 2578 3413 2733 3391 
Q 2888 3369 3059 3328 
z
" transform="scale(0.015625)"/>
       <path id="DejaVuSerif-61" d="M 2547 1044 
L 2547 1747 
L 1806 1747 
Q 1378 1747 1168 1562 
Q 959 1378 959 997 
Q 959 650 1171 447 
Q 1384 244 1747 244 
Q 2106 244 2326 466 
Q 2547 688 2547 1044 
z
M 3122 2075 
L 3122 331 
L 3634 331 
L 3634 0 
L 2547 0 
L 2547 359 
Q 2356 128 2106 18 
Q 1856 -91 1522 -91 
Q 969 -91 644 203 
Q 319 497 319 997 
Q 319 1513 691 1797 
Q 1063 2081 1741 2081 
L 2547 2081 
L 2547 2309 
Q 2547 2688 2317 2895 
Q 2088 3103 1672 3103 
Q 1328 3103 1125 2947 
Q 922 2791 872 2484 
L 575 2484 
L 575 3156 
Q 875 3284 1158 3348 
Q 1441 3413 1709 3413 
Q 2400 3413 2761 3070 
Q 3122 2728 3122 2075 
z
" transform="scale(0.015625)"/>
       <path id="DejaVuSerif-64" d="M 3359 331 
L 3909 331 
L 3909 0 
L 2784 0 
L 2784 519 
Q 2616 206 2355 57 
Q 2094 -91 1709 -91 
Q 1097 -91 708 395 
Q 319 881 319 1663 
Q 319 2444 706 2928 
Q 1094 3413 1709 3413 
Q 2094 3413 2355 3264 
Q 2616 3116 2784 2803 
L 2784 4531 
L 2241 4531 
L 2241 4863 
L 3359 4863 
L 3359 331 
z
M 2784 1497 
L 2784 1825 
Q 2784 2422 2554 2737 
Q 2325 3053 1888 3053 
Q 1444 3053 1217 2703 
Q 991 2353 991 1663 
Q 991 975 1217 622 
Q 1444 269 1888 269 
Q 2325 269 2554 583 
Q 2784 897 2784 1497 
z
" transform="scale(0.015625)"/>
       <path id="DejaVuSerif-69" d="M 622 4353 
Q 622 4497 726 4603 
Q 831 4709 978 4709 
Q 1122 4709 1226 4603 
Q 1331 4497 1331 4353 
Q 1331 4206 1228 4103 
Q 1125 4000 978 4000 
Q 831 4000 726 4103 
Q 622 4206 622 4353 
z
M 1356 331 
L 1900 331 
L 1900 0 
L 231 0 
L 231 331 
L 781 331 
L 781 2988 
L 231 2988 
L 231 3322 
L 1356 3322 
L 1356 331 
z
" transform="scale(0.015625)"/>
       <path id="DejaVuSerif-65" d="M 3469 1600 
L 991 1600 
L 991 1575 
Q 991 903 1244 561 
Q 1497 219 1991 219 
Q 2369 219 2611 417 
Q 2853 616 2950 1006 
L 3413 1006 
Q 3275 459 2904 184 
Q 2534 -91 1931 -91 
Q 1203 -91 761 389 
Q 319 869 319 1663 
Q 319 2450 753 2931 
Q 1188 3413 1894 3413 
Q 2647 3413 3050 2948 
Q 3453 2484 3469 1600 
z
M 2791 1931 
Q 2772 2513 2545 2808 
Q 2319 3103 1894 3103 
Q 1497 3103 1269 2806 
Q 1041 2509 991 1931 
L 2791 1931 
z
" transform="scale(0.015625)"/>
       <path id="DejaVuSerif-6e" d="M 263 0 
L 263 331 
L 781 331 
L 781 2988 
L 231 2988 
L 231 3322 
L 1356 3322 
L 1356 2731 
Q 1516 3069 1770 3241 
Q 2025 3413 2363 3413 
Q 2913 3413 3172 3097 
Q 3431 2781 3431 2113 
L 3431 331 
L 3944 331 
L 3944 0 
L 2356 0 
L 2356 331 
L 2853 331 
L 2853 1931 
Q 2853 2541 2703 2767 
Q 2553 2994 2175 2994 
Q 1775 2994 1565 2701 
Q 1356 2409 1356 1850 
L 1356 331 
L 1856 331 
L 1856 0 
L 263 0 
z
" transform="scale(0.015625)"/>
       <path id="DejaVuSerif-74" d="M 691 2988 
L 184 2988 
L 184 3322 
L 691 3322 
L 691 4353 
L 1269 4353 
L 1269 3322 
L 2350 3322 
L 2350 2988 
L 1269 2988 
L 1269 878 
Q 1269 456 1350 337 
Q 1431 219 1650 219 
Q 1875 219 1978 351 
Q 2081 484 2088 781 
L 2522 781 
Q 2497 328 2275 118 
Q 2053 -91 1600 -91 
Q 1103 -91 897 129 
Q 691 350 691 878 
L 691 2988 
z
" transform="scale(0.015625)"/>
       <path id="DejaVuSerif-20" transform="scale(0.015625)"/>
       <path id="DejaVuSerif-53" d="M 594 225 
L 594 1288 
L 953 1284 
Q 969 753 1261 498 
Q 1553 244 2150 244 
Q 2706 244 2998 464 
Q 3291 684 3291 1106 
Q 3291 1444 3114 1625 
Q 2938 1806 2369 1978 
L 1753 2163 
Q 1084 2366 811 2669 
Q 538 2972 538 3500 
Q 538 4094 959 4422 
Q 1381 4750 2144 4750 
Q 2469 4750 2856 4679 
Q 3244 4609 3681 4475 
L 3681 3481 
L 3328 3481 
Q 3275 3975 2998 4195 
Q 2722 4416 2156 4416 
Q 1663 4416 1405 4214 
Q 1147 4013 1147 3628 
Q 1147 3294 1340 3103 
Q 1534 2913 2163 2725 
L 2741 2553 
Q 3375 2363 3645 2067 
Q 3916 1772 3916 1275 
Q 3916 597 3481 253 
Q 3047 -91 2188 -91 
Q 1803 -91 1404 -12 
Q 1006 66 594 225 
z
" transform="scale(0.015625)"/>
       <path id="DejaVuSerif-70" d="M 1313 1825 
L 1313 1497 
Q 1313 897 1542 583 
Q 1772 269 2209 269 
Q 2650 269 2876 622 
Q 3103 975 3103 1663 
Q 3103 2353 2876 2703 
Q 2650 3053 2209 3053 
Q 1772 3053 1542 2737 
Q 1313 2422 1313 1825 
z
M 738 2988 
L 184 2988 
L 184 3322 
L 1313 3322 
L 1313 2803 
Q 1481 3116 1742 3264 
Q 2003 3413 2388 3413 
Q 3000 3413 3387 2928 
Q 3775 2444 3775 1663 
Q 3775 881 3387 395 
Q 3000 -91 2388 -91 
Q 2003 -91 1742 57 
Q 1481 206 1313 519 
L 1313 -997 
L 1856 -997 
L 1856 -1331 
L 184 -1331 
L 184 -997 
L 738 -997 
L 738 2988 
z
" transform="scale(0.015625)"/>
      </defs>
      <use xlink:href="#DejaVuSerif-47"/>
      <use xlink:href="#DejaVuSerif-72" transform="translate(79.882812 0)"/>
      <use xlink:href="#DejaVuSerif-61" transform="translate(127.685547 0)"/>
      <use xlink:href="#DejaVuSerif-64" transform="translate(187.304688 0)"/>
      <use xlink:href="#DejaVuSerif-69" transform="translate(251.318359 0)"/>
      <use xlink:href="#DejaVuSerif-65" transform="translate(283.300781 0)"/>
      <use xlink:href="#DejaVuSerif-6e" transform="translate(342.480469 0)"/>
      <use xlink:href="#DejaVuSerif-74" transform="translate(406.884766 0)"/>
      <use xlink:href="#DejaVuSerif-20" transform="translate(447.070312 0)"/>
      <use xlink:href="#DejaVuSerif-53" transform="translate(478.857422 0)"/>
      <use xlink:href="#DejaVuSerif-74" transform="translate(547.363281 0)"/>
      <use xlink:href="#DejaVuSerif-65" transform="translate(587.548828 0)"/>
      <use xlink:href="#DejaVuSerif-70" transform="translate(646.728516 0)"/>
     </g>
    </g>
   </g>
   <g id="matplotlib.axis_2">
    <g id="ytick_1">
     <g id="line2d_17">
      <defs>
       <path id="m457982d2d4" d="M 0 0 
L 3.5 0 
" style="stroke: #657b83; stroke-width: 0.8"/>
      </defs>
      <g>
       <use xlink:href="#m457982d2d4" x="106.7025" y="263.474119" style="fill: #657b83; stroke: #657b83; stroke-width: 0.8"/>
      </g>
     </g>
     <g id="text_10">
      <!-- 0.34 -->
      <g transform="translate(47.538438 272.972166) scale(0.25 -0.25)">
       <defs>
        <path id="DejaVuSerif-2e" d="M 603 325 
Q 603 500 722 622 
Q 841 744 1019 744 
Q 1191 744 1312 622 
Q 1434 500 1434 325 
Q 1434 153 1312 31 
Q 1191 -91 1019 -91 
Q 841 -91 722 29 
Q 603 150 603 325 
z
" transform="scale(0.015625)"/>
        <path id="DejaVuSerif-33" d="M 622 4469 
Q 988 4606 1323 4678 
Q 1659 4750 1953 4750 
Q 2638 4750 3022 4454 
Q 3406 4159 3406 3634 
Q 3406 3213 3140 2930 
Q 2875 2647 2388 2547 
Q 2963 2466 3280 2130 
Q 3597 1794 3597 1259 
Q 3597 606 3158 257 
Q 2719 -91 1894 -91 
Q 1528 -91 1179 -12 
Q 831 66 488 225 
L 488 1131 
L 838 1131 
Q 869 681 1141 450 
Q 1413 219 1906 219 
Q 2384 219 2661 495 
Q 2938 772 2938 1253 
Q 2938 1803 2653 2086 
Q 2369 2369 1819 2369 
L 1522 2369 
L 1522 2688 
L 1678 2688 
Q 2225 2688 2498 2914 
Q 2772 3141 2772 3597 
Q 2772 4006 2547 4223 
Q 2322 4441 1900 4441 
Q 1478 4441 1245 4241 
Q 1013 4041 972 3647 
L 622 3647 
L 622 4469 
z
" transform="scale(0.015625)"/>
        <path id="DejaVuSerif-34" d="M 2234 1581 
L 2234 4063 
L 641 1581 
L 2234 1581 
z
M 3609 0 
L 1484 0 
L 1484 331 
L 2234 331 
L 2234 1247 
L 197 1247 
L 197 1588 
L 2241 4750 
L 2859 4750 
L 2859 1581 
L 3750 1581 
L 3750 1247 
L 2859 1247 
L 2859 331 
L 3609 331 
L 3609 0 
z
" transform="scale(0.015625)"/>
       </defs>
       <use xlink:href="#DejaVuSerif-30"/>
       <use xlink:href="#DejaVuSerif-2e" transform="translate(63.623047 0)"/>
       <use xlink:href="#DejaVuSerif-33" transform="translate(95.410156 0)"/>
       <use xlink:href="#DejaVuSerif-34" transform="translate(159.033203 0)"/>
      </g>
     </g>
    </g>
    <g id="ytick_2">
     <g id="line2d_18">
      <g>
       <use xlink:href="#m457982d2d4" x="106.7025" y="218.361998" style="fill: #657b83; stroke: #657b83; stroke-width: 0.8"/>
      </g>
     </g>
     <g id="text_11">
      <!-- 0.35 -->
      <g transform="translate(47.538438 227.860045) scale(0.25 -0.25)">
       <use xlink:href="#DejaVuSerif-30"/>
       <use xlink:href="#DejaVuSerif-2e" transform="translate(63.623047 0)"/>
       <use xlink:href="#DejaVuSerif-33" transform="translate(95.410156 0)"/>
       <use xlink:href="#DejaVuSerif-35" transform="translate(159.033203 0)"/>
      </g>
     </g>
    </g>
    <g id="ytick_3">
     <g id="line2d_19">
      <g>
       <use xlink:href="#m457982d2d4" x="106.7025" y="173.249877" style="fill: #657b83; stroke: #657b83; stroke-width: 0.8"/>
      </g>
     </g>
     <g id="text_12">
      <!-- 0.36 -->
      <g transform="translate(47.538438 182.747924) scale(0.25 -0.25)">
       <defs>
        <path id="DejaVuSerif-36" d="M 2094 219 
Q 2534 219 2771 542 
Q 3009 866 3009 1472 
Q 3009 2078 2771 2401 
Q 2534 2725 2094 2725 
Q 1647 2725 1412 2412 
Q 1178 2100 1178 1509 
Q 1178 888 1415 553 
Q 1653 219 2094 219 
z
M 1075 2569 
Q 1288 2803 1556 2918 
Q 1825 3034 2163 3034 
Q 2859 3034 3264 2615 
Q 3669 2197 3669 1472 
Q 3669 763 3233 336 
Q 2797 -91 2069 -91 
Q 1278 -91 853 498 
Q 428 1088 428 2181 
Q 428 3406 931 4078 
Q 1434 4750 2350 4750 
Q 2597 4750 2869 4703 
Q 3141 4656 3425 4563 
L 3425 3794 
L 3072 3794 
Q 3034 4109 2831 4275 
Q 2628 4441 2284 4441 
Q 1678 4441 1381 3981 
Q 1084 3522 1075 2569 
z
" transform="scale(0.015625)"/>
       </defs>
       <use xlink:href="#DejaVuSerif-30"/>
       <use xlink:href="#DejaVuSerif-2e" transform="translate(63.623047 0)"/>
       <use xlink:href="#DejaVuSerif-33" transform="translate(95.410156 0)"/>
       <use xlink:href="#DejaVuSerif-36" transform="translate(159.033203 0)"/>
      </g>
     </g>
    </g>
    <g id="ytick_4">
     <g id="line2d_20">
      <g>
       <use xlink:href="#m457982d2d4" x="106.7025" y="128.137756" style="fill: #657b83; stroke: #657b83; stroke-width: 0.8"/>
      </g>
     </g>
     <g id="text_13">
      <!-- 0.37 -->
      <g transform="translate(47.538438 137.635803) scale(0.25 -0.25)">
       <use xlink:href="#DejaVuSerif-30"/>
       <use xlink:href="#DejaVuSerif-2e" transform="translate(63.623047 0)"/>
       <use xlink:href="#DejaVuSerif-33" transform="translate(95.410156 0)"/>
       <use xlink:href="#DejaVuSerif-37" transform="translate(159.033203 0)"/>
      </g>
     </g>
    </g>
    <g id="ytick_5">
     <g id="line2d_21">
      <g>
       <use xlink:href="#m457982d2d4" x="106.7025" y="83.025635" style="fill: #657b83; stroke: #657b83; stroke-width: 0.8"/>
      </g>
     </g>
     <g id="text_14">
      <!-- 0.38 -->
      <g transform="translate(47.538438 92.523682) scale(0.25 -0.25)">
       <defs>
        <path id="DejaVuSerif-38" d="M 2981 1275 
Q 2981 1775 2732 2051 
Q 2484 2328 2034 2328 
Q 1584 2328 1336 2051 
Q 1088 1775 1088 1275 
Q 1088 772 1336 495 
Q 1584 219 2034 219 
Q 2484 219 2732 495 
Q 2981 772 2981 1275 
z
M 2853 3541 
Q 2853 3966 2637 4203 
Q 2422 4441 2034 4441 
Q 1650 4441 1433 4203 
Q 1216 3966 1216 3541 
Q 1216 3113 1433 2875 
Q 1650 2638 2034 2638 
Q 2422 2638 2637 2875 
Q 2853 3113 2853 3541 
z
M 2516 2484 
Q 3047 2413 3344 2092 
Q 3641 1772 3641 1275 
Q 3641 619 3225 264 
Q 2809 -91 2034 -91 
Q 1263 -91 845 264 
Q 428 619 428 1275 
Q 428 1772 725 2092 
Q 1022 2413 1556 2484 
Q 1084 2569 832 2842 
Q 581 3116 581 3541 
Q 581 4103 968 4426 
Q 1356 4750 2034 4750 
Q 2713 4750 3100 4426 
Q 3488 4103 3488 3541 
Q 3488 3116 3236 2842 
Q 2984 2569 2516 2484 
z
" transform="scale(0.015625)"/>
       </defs>
       <use xlink:href="#DejaVuSerif-30"/>
       <use xlink:href="#DejaVuSerif-2e" transform="translate(63.623047 0)"/>
       <use xlink:href="#DejaVuSerif-33" transform="translate(95.410156 0)"/>
       <use xlink:href="#DejaVuSerif-38" transform="translate(159.033203 0)"/>
      </g>
     </g>
    </g>
    <g id="ytick_6">
     <g id="line2d_22">
      <g>
       <use xlink:href="#m457982d2d4" x="106.7025" y="37.913514" style="fill: #657b83; stroke: #657b83; stroke-width: 0.8"/>
      </g>
     </g>
     <g id="text_15">
      <!-- 0.39 -->
      <g transform="translate(47.538438 47.411561) scale(0.25 -0.25)">
       <defs>
        <path id="DejaVuSerif-39" d="M 2994 2091 
Q 2784 1856 2512 1740 
Q 2241 1625 1900 1625 
Q 1206 1625 804 2044 
Q 403 2463 403 3188 
Q 403 3897 839 4323 
Q 1275 4750 2003 4750 
Q 2794 4750 3217 4161 
Q 3641 3572 3641 2478 
Q 3641 1253 3137 581 
Q 2634 -91 1722 -91 
Q 1475 -91 1203 -44 
Q 931 3 647 97 
L 647 872 
L 997 872 
Q 1038 556 1241 387 
Q 1444 219 1784 219 
Q 2391 219 2687 676 
Q 2984 1134 2994 2091 
z
M 1978 4441 
Q 1534 4441 1298 4117 
Q 1063 3794 1063 3188 
Q 1063 2581 1298 2256 
Q 1534 1931 1978 1931 
Q 2422 1931 2658 2245 
Q 2894 2559 2894 3150 
Q 2894 3772 2656 4106 
Q 2419 4441 1978 4441 
z
" transform="scale(0.015625)"/>
       </defs>
       <use xlink:href="#DejaVuSerif-30"/>
       <use xlink:href="#DejaVuSerif-2e" transform="translate(63.623047 0)"/>
       <use xlink:href="#DejaVuSerif-33" transform="translate(95.410156 0)"/>
       <use xlink:href="#DejaVuSerif-39" transform="translate(159.033203 0)"/>
      </g>
     </g>
    </g>
    <g id="text_16">
     <!-- Pass@1 (Avg@16) -->
     <g transform="translate(36.872813 286.057969) rotate(-90) scale(0.3 -0.3)">
      <defs>
       <path id="DejaVuSerif-50" d="M 1581 2375 
L 2406 2375 
Q 2872 2375 3115 2626 
Q 3359 2878 3359 3353 
Q 3359 3831 3115 4081 
Q 2872 4331 2406 4331 
L 1581 4331 
L 1581 2375 
z
M 353 0 
L 353 331 
L 947 331 
L 947 4331 
L 353 4331 
L 353 4666 
L 2559 4666 
Q 3259 4666 3668 4311 
Q 4078 3956 4078 3353 
Q 4078 2753 3668 2397 
Q 3259 2041 2559 2041 
L 1581 2041 
L 1581 331 
L 2303 331 
L 2303 0 
L 353 0 
z
" transform="scale(0.015625)"/>
       <path id="DejaVuSerif-73" d="M 359 184 
L 359 959 
L 691 959 
Q 703 588 923 403 
Q 1144 219 1575 219 
Q 1963 219 2166 364 
Q 2369 509 2369 788 
Q 2369 1006 2220 1140 
Q 2072 1275 1594 1428 
L 1178 1569 
Q 750 1706 558 1912 
Q 366 2119 366 2438 
Q 366 2894 700 3153 
Q 1034 3413 1625 3413 
Q 1888 3413 2178 3344 
Q 2469 3275 2778 3144 
L 2778 2419 
L 2447 2419 
Q 2434 2741 2221 2922 
Q 2009 3103 1644 3103 
Q 1281 3103 1095 2975 
Q 909 2847 909 2591 
Q 909 2381 1050 2254 
Q 1191 2128 1613 1997 
L 2069 1856 
Q 2541 1709 2748 1489 
Q 2956 1269 2956 922 
Q 2956 450 2595 179 
Q 2234 -91 1600 -91 
Q 1278 -91 972 -22 
Q 666 47 359 184 
z
" transform="scale(0.015625)"/>
       <path id="DejaVuSerif-40" d="M 4044 775 
Q 3859 519 3629 394 
Q 3400 269 3109 269 
Q 2563 269 2222 659 
Q 1881 1050 1881 1678 
Q 1881 2306 2222 2695 
Q 2563 3084 3109 3084 
Q 3400 3084 3629 2959 
Q 3859 2834 4044 2578 
L 4044 3022 
L 4531 3022 
L 4531 609 
Q 5063 725 5356 1115 
Q 5650 1506 5650 2094 
Q 5650 2441 5544 2750 
Q 5438 3059 5228 3322 
Q 4897 3738 4420 3958 
Q 3944 4178 3384 4178 
Q 3103 4178 2828 4118 
Q 2553 4059 2284 3938 
Q 1653 3647 1303 3058 
Q 953 2469 953 1697 
Q 953 1175 1109 736 
Q 1266 297 1563 -25 
Q 1903 -397 2370 -592 
Q 2838 -788 3378 -788 
Q 3781 -788 4131 -669 
Q 4481 -550 4781 -313 
L 4947 -531 
Q 4609 -822 4181 -967 
Q 3753 -1113 3244 -1113 
Q 2672 -1113 2151 -905 
Q 1631 -697 1241 -313 
Q 838 84 630 595 
Q 422 1106 422 1697 
Q 422 2272 631 2781 
Q 841 3291 1241 3688 
Q 1638 4081 2177 4293 
Q 2716 4506 3322 4506 
Q 3991 4506 4542 4247 
Q 5094 3988 5466 3500 
Q 5703 3194 5825 2834 
Q 5947 2475 5947 2088 
Q 5947 1250 5437 764 
Q 4928 278 4047 269 
L 4044 775 
z
M 4044 1516 
L 4044 1844 
Q 4044 2234 3820 2476 
Q 3597 2719 3238 2719 
Q 2859 2719 2648 2445 
Q 2438 2172 2438 1678 
Q 2438 1181 2650 907 
Q 2863 634 3244 634 
Q 3600 634 3822 879 
Q 4044 1125 4044 1516 
z
" transform="scale(0.015625)"/>
       <path id="DejaVuSerif-28" d="M 2041 -997 
Q 1281 -656 893 83 
Q 506 822 506 1931 
Q 506 3044 893 3783 
Q 1281 4522 2041 4863 
L 2041 4556 
Q 1559 4225 1350 3623 
Q 1141 3022 1141 1931 
Q 1141 844 1350 242 
Q 1559 -359 2041 -691 
L 2041 -997 
z
" transform="scale(0.015625)"/>
       <path id="DejaVuSerif-41" d="M 1281 1691 
L 2994 1691 
L 2138 3909 
L 1281 1691 
z
M -38 0 
L -38 331 
L 372 331 
L 2034 4666 
L 2559 4666 
L 4225 331 
L 4684 331 
L 4684 0 
L 2988 0 
L 2988 331 
L 3506 331 
L 3116 1356 
L 1153 1356 
L 763 331 
L 1275 331 
L 1275 0 
L -38 0 
z
" transform="scale(0.015625)"/>
       <path id="DejaVuSerif-76" d="M 1581 0 
L 359 2988 
L -19 2988 
L -19 3322 
L 1509 3322 
L 1509 2988 
L 978 2988 
L 1913 703 
L 2847 2988 
L 2350 2988 
L 2350 3322 
L 3597 3322 
L 3597 2988 
L 3225 2988 
L 2003 0 
L 1581 0 
z
" transform="scale(0.015625)"/>
       <path id="DejaVuSerif-67" d="M 3359 2988 
L 3359 72 
Q 3359 -644 2965 -1033 
Q 2572 -1422 1844 -1422 
Q 1516 -1422 1216 -1362 
Q 916 -1303 641 -1184 
L 641 -488 
L 941 -488 
Q 997 -813 1206 -963 
Q 1416 -1113 1806 -1113 
Q 2313 -1113 2548 -827 
Q 2784 -541 2784 72 
L 2784 519 
Q 2616 206 2355 57 
Q 2094 -91 1709 -91 
Q 1097 -91 708 395 
Q 319 881 319 1663 
Q 319 2444 706 2928 
Q 1094 3413 1709 3413 
Q 2094 3413 2355 3264 
Q 2616 3116 2784 2803 
L 2784 3322 
L 3909 3322 
L 3909 2988 
L 3359 2988 
z
M 2784 1825 
Q 2784 2422 2554 2737 
Q 2325 3053 1888 3053 
Q 1444 3053 1217 2703 
Q 991 2353 991 1663 
Q 991 975 1217 622 
Q 1444 269 1888 269 
Q 2325 269 2554 583 
Q 2784 897 2784 1497 
L 2784 1825 
z
" transform="scale(0.015625)"/>
       <path id="DejaVuSerif-29" d="M 453 -997 
L 453 -691 
Q 934 -359 1145 242 
Q 1356 844 1356 1931 
Q 1356 3022 1145 3623 
Q 934 4225 453 4556 
L 453 4863 
Q 1216 4522 1603 3783 
Q 1991 3044 1991 1931 
Q 1991 822 1603 83 
Q 1216 -656 453 -997 
z
" transform="scale(0.015625)"/>
      </defs>
      <use xlink:href="#DejaVuSerif-50"/>
      <use xlink:href="#DejaVuSerif-61" transform="translate(62.785156 0)"/>
      <use xlink:href="#DejaVuSerif-73" transform="translate(122.404297 0)"/>
      <use xlink:href="#DejaVuSerif-73" transform="translate(173.722656 0)"/>
      <use xlink:href="#DejaVuSerif-40" transform="translate(225.041016 0)"/>
      <use xlink:href="#DejaVuSerif-31" transform="translate(325.041016 0)"/>
      <use xlink:href="#DejaVuSerif-20" transform="translate(388.664062 0)"/>
      <use xlink:href="#DejaVuSerif-28" transform="translate(420.451172 0)"/>
      <use xlink:href="#DejaVuSerif-41" transform="translate(459.464844 0)"/>
      <use xlink:href="#DejaVuSerif-76" transform="translate(527.681641 0)"/>
      <use xlink:href="#DejaVuSerif-67" transform="translate(584.175781 0)"/>
      <use xlink:href="#DejaVuSerif-40" transform="translate(648.189453 0)"/>
      <use xlink:href="#DejaVuSerif-31" transform="translate(748.189453 0)"/>
      <use xlink:href="#DejaVuSerif-36" transform="translate(811.8125 0)"/>
      <use xlink:href="#DejaVuSerif-29" transform="translate(875.435547 0)"/>
     </g>
    </g>
   </g>
   <g id="patch_3">
    <path d="M 537.519859 60.469575 
Q 655.923055 60.469575 777.121337 60.469575 
" clip-path="url(#p106982caf1)" style="fill: none; stroke: #000000; stroke-width: 2.5; stroke-linecap: round"/>
    <path d="M 543.519859 63.469575 
L 537.519859 60.469575 
L 543.519859 57.469575 
" clip-path="url(#p106982caf1)" style="fill: none; stroke: #000000; stroke-width: 2.5; stroke-linecap: round"/>
   </g>
   <g id="line2d_23">
    <path d="M 139.2903 264.977823 
L 155.186788 265.729695 
L 171.083276 258.304992 
L 186.979764 256.321939 
L 202.876251 257.695045 
L 218.772739 260.754119 
L 234.669227 259.729146 
L 250.565715 254.032306 
L 266.462203 240.991732 
L 282.358691 241.303909 
L 298.255179 242.430723 
L 314.151666 237.505094 
L 330.048154 238.861412 
L 345.944642 231.26644 
L 361.84113 217.45738 
L 377.737618 204.954041 
L 393.634106 187.065792 
L 409.530594 166.849892 
L 425.427081 161.550129 
L 441.323569 162.851678 
L 457.220057 156.917917 
L 473.116545 150.994831 
L 489.013033 154.442123 
L 504.909521 153.484595 
L 520.806008 160.630221 
L 536.702496 161.422268 
L 552.598984 164.541084 
L 568.495472 162.16013 
L 584.39196 150.938461 
L 600.288448 133.940559 
L 616.184936 127.664877 
L 632.081423 121.828795 
L 647.977911 122.610065 
L 663.874399 118.971166 
L 679.770887 114.380384 
L 695.667375 110.023123 
L 711.563863 107.868477 
L 727.460351 104.519543 
L 743.356838 90.133493 
L 759.253326 74.798856 
L 775.149814 79.324483 
L 791.046302 62.251243 
" clip-path="url(#p106982caf1)" style="fill: none; stroke: #268bd2; stroke-opacity: 0.25; stroke-width: 5"/>
    <defs>
     <path id="m31678311ea" d="M 0 5 
C 1.326016 5 2.597899 4.473168 3.535534 3.535534 
C 4.473168 2.597899 5 1.326016 5 0 
C 5 -1.326016 4.473168 -2.597899 3.535534 -3.535534 
C 2.597899 -4.473168 1.326016 -5 0 -5 
C -1.326016 -5 -2.597899 -4.473168 -3.535534 -3.535534 
C -4.473168 -2.597899 -5 -1.326016 -5 0 
C -5 1.326016 -4.473168 2.597899 -3.535534 3.535534 
C -2.597899 4.473168 -1.326016 5 0 5 
z
" style="stroke: #268bd2; stroke-opacity: 0.25"/>
    </defs>
    <g clip-path="url(#p106982caf1)">
     <use xlink:href="#m31678311ea" x="139.2903" y="264.977823" style="fill: #268bd2; fill-opacity: 0.25; stroke: #268bd2; stroke-opacity: 0.25"/>
     <use xlink:href="#m31678311ea" x="155.186788" y="265.729695" style="fill: #268bd2; fill-opacity: 0.25; stroke: #268bd2; stroke-opacity: 0.25"/>
     <use xlink:href="#m31678311ea" x="171.083276" y="258.304992" style="fill: #268bd2; fill-opacity: 0.25; stroke: #268bd2; stroke-opacity: 0.25"/>
     <use xlink:href="#m31678311ea" x="186.979764" y="256.321939" style="fill: #268bd2; fill-opacity: 0.25; stroke: #268bd2; stroke-opacity: 0.25"/>
     <use xlink:href="#m31678311ea" x="202.876251" y="257.695045" style="fill: #268bd2; fill-opacity: 0.25; stroke: #268bd2; stroke-opacity: 0.25"/>
     <use xlink:href="#m31678311ea" x="218.772739" y="260.754119" style="fill: #268bd2; fill-opacity: 0.25; stroke: #268bd2; stroke-opacity: 0.25"/>
     <use xlink:href="#m31678311ea" x="234.669227" y="259.729146" style="fill: #268bd2; fill-opacity: 0.25; stroke: #268bd2; stroke-opacity: 0.25"/>
     <use xlink:href="#m31678311ea" x="250.565715" y="254.032306" style="fill: #268bd2; fill-opacity: 0.25; stroke: #268bd2; stroke-opacity: 0.25"/>
     <use xlink:href="#m31678311ea" x="266.462203" y="240.991732" style="fill: #268bd2; fill-opacity: 0.25; stroke: #268bd2; stroke-opacity: 0.25"/>
     <use xlink:href="#m31678311ea" x="282.358691" y="241.303909" style="fill: #268bd2; fill-opacity: 0.25; stroke: #268bd2; stroke-opacity: 0.25"/>
     <use xlink:href="#m31678311ea" x="298.255179" y="242.430723" style="fill: #268bd2; fill-opacity: 0.25; stroke: #268bd2; stroke-opacity: 0.25"/>
     <use xlink:href="#m31678311ea" x="314.151666" y="237.505094" style="fill: #268bd2; fill-opacity: 0.25; stroke: #268bd2; stroke-opacity: 0.25"/>
     <use xlink:href="#m31678311ea" x="330.048154" y="238.861412" style="fill: #268bd2; fill-opacity: 0.25; stroke: #268bd2; stroke-opacity: 0.25"/>
     <use xlink:href="#m31678311ea" x="345.944642" y="231.26644" style="fill: #268bd2; fill-opacity: 0.25; stroke: #268bd2; stroke-opacity: 0.25"/>
     <use xlink:href="#m31678311ea" x="361.84113" y="217.45738" style="fill: #268bd2; fill-opacity: 0.25; stroke: #268bd2; stroke-opacity: 0.25"/>
     <use xlink:href="#m31678311ea" x="377.737618" y="204.954041" style="fill: #268bd2; fill-opacity: 0.25; stroke: #268bd2; stroke-opacity: 0.25"/>
     <use xlink:href="#m31678311ea" x="393.634106" y="187.065792" style="fill: #268bd2; fill-opacity: 0.25; stroke: #268bd2; stroke-opacity: 0.25"/>
     <use xlink:href="#m31678311ea" x="409.530594" y="166.849892" style="fill: #268bd2; fill-opacity: 0.25; stroke: #268bd2; stroke-opacity: 0.25"/>
     <use xlink:href="#m31678311ea" x="425.427081" y="161.550129" style="fill: #268bd2; fill-opacity: 0.25; stroke: #268bd2; stroke-opacity: 0.25"/>
     <use xlink:href="#m31678311ea" x="441.323569" y="162.851678" style="fill: #268bd2; fill-opacity: 0.25; stroke: #268bd2; stroke-opacity: 0.25"/>
     <use xlink:href="#m31678311ea" x="457.220057" y="156.917917" style="fill: #268bd2; fill-opacity: 0.25; stroke: #268bd2; stroke-opacity: 0.25"/>
     <use xlink:href="#m31678311ea" x="473.116545" y="150.994831" style="fill: #268bd2; fill-opacity: 0.25; stroke: #268bd2; stroke-opacity: 0.25"/>
     <use xlink:href="#m31678311ea" x="489.013033" y="154.442123" style="fill: #268bd2; fill-opacity: 0.25; stroke: #268bd2; stroke-opacity: 0.25"/>
     <use xlink:href="#m31678311ea" x="504.909521" y="153.484595" style="fill: #268bd2; fill-opacity: 0.25; stroke: #268bd2; stroke-opacity: 0.25"/>
     <use xlink:href="#m31678311ea" x="520.806008" y="160.630221" style="fill: #268bd2; fill-opacity: 0.25; stroke: #268bd2; stroke-opacity: 0.25"/>
     <use xlink:href="#m31678311ea" x="536.702496" y="161.422268" style="fill: #268bd2; fill-opacity: 0.25; stroke: #268bd2; stroke-opacity: 0.25"/>
     <use xlink:href="#m31678311ea" x="552.598984" y="164.541084" style="fill: #268bd2; fill-opacity: 0.25; stroke: #268bd2; stroke-opacity: 0.25"/>
     <use xlink:href="#m31678311ea" x="568.495472" y="162.16013" style="fill: #268bd2; fill-opacity: 0.25; stroke: #268bd2; stroke-opacity: 0.25"/>
     <use xlink:href="#m31678311ea" x="584.39196" y="150.938461" style="fill: #268bd2; fill-opacity: 0.25; stroke: #268bd2; stroke-opacity: 0.25"/>
     <use xlink:href="#m31678311ea" x="600.288448" y="133.940559" style="fill: #268bd2; fill-opacity: 0.25; stroke: #268bd2; stroke-opacity: 0.25"/>
     <use xlink:href="#m31678311ea" x="616.184936" y="127.664877" style="fill: #268bd2; fill-opacity: 0.25; stroke: #268bd2; stroke-opacity: 0.25"/>
     <use xlink:href="#m31678311ea" x="632.081423" y="121.828795" style="fill: #268bd2; fill-opacity: 0.25; stroke: #268bd2; stroke-opacity: 0.25"/>
     <use xlink:href="#m31678311ea" x="647.977911" y="122.610065" style="fill: #268bd2; fill-opacity: 0.25; stroke: #268bd2; stroke-opacity: 0.25"/>
     <use xlink:href="#m31678311ea" x="663.874399" y="118.971166" style="fill: #268bd2; fill-opacity: 0.25; stroke: #268bd2; stroke-opacity: 0.25"/>
     <use xlink:href="#m31678311ea" x="679.770887" y="114.380384" style="fill: #268bd2; fill-opacity: 0.25; stroke: #268bd2; stroke-opacity: 0.25"/>
     <use xlink:href="#m31678311ea" x="695.667375" y="110.023123" style="fill: #268bd2; fill-opacity: 0.25; stroke: #268bd2; stroke-opacity: 0.25"/>
     <use xlink:href="#m31678311ea" x="711.563863" y="107.868477" style="fill: #268bd2; fill-opacity: 0.25; stroke: #268bd2; stroke-opacity: 0.25"/>
     <use xlink:href="#m31678311ea" x="727.460351" y="104.519543" style="fill: #268bd2; fill-opacity: 0.25; stroke: #268bd2; stroke-opacity: 0.25"/>
     <use xlink:href="#m31678311ea" x="743.356838" y="90.133493" style="fill: #268bd2; fill-opacity: 0.25; stroke: #268bd2; stroke-opacity: 0.25"/>
     <use xlink:href="#m31678311ea" x="759.253326" y="74.798856" style="fill: #268bd2; fill-opacity: 0.25; stroke: #268bd2; stroke-opacity: 0.25"/>
     <use xlink:href="#m31678311ea" x="775.149814" y="79.324483" style="fill: #268bd2; fill-opacity: 0.25; stroke: #268bd2; stroke-opacity: 0.25"/>
     <use xlink:href="#m31678311ea" x="791.046302" y="62.251243" style="fill: #268bd2; fill-opacity: 0.25; stroke: #268bd2; stroke-opacity: 0.25"/>
    </g>
   </g>
   <g id="line2d_24">
    <path d="M 139.2903 272.462727 
L 155.186788 262.062125 
L 171.083276 256.68649 
L 186.979764 242.742907 
L 202.876251 235.095121 
L 218.772739 240.864179 
L 234.669227 237.668112 
L 250.565715 232.97852 
L 266.462203 211.523173 
L 282.358691 206.837963 
L 298.255179 195.428519 
L 314.151666 165.873086 
L 330.048154 153.240284 
L 345.944642 158.786682 
L 361.84113 149.671876 
L 377.737618 142.644097 
L 393.634106 116.175408 
L 409.530594 98.091848 
L 425.427081 95.225847 
L 441.323569 89.179578 
L 457.220057 87.543519 
L 473.116545 85.234242 
L 489.013033 80.466082 
L 504.909521 75.039035 
L 520.806008 61.945789 
L 536.702496 47.671308 
L 552.598984 49.409028 
L 568.495472 56.61161 
L 584.39196 51.179075 
L 600.288448 49.696879 
" clip-path="url(#p106982caf1)" style="fill: none; stroke: #268bd2; stroke-width: 4"/>
    <defs>
     <path id="m8d97e4feee" d="M 0 5 
C 1.326016 5 2.597899 4.473168 3.535534 3.535534 
C 4.473168 2.597899 5 1.326016 5 0 
C 5 -1.326016 4.473168 -2.597899 3.535534 -3.535534 
C 2.597899 -4.473168 1.326016 -5 0 -5 
C -1.326016 -5 -2.597899 -4.473168 -3.535534 -3.535534 
C -4.473168 -2.597899 -5 -1.326016 -5 0 
C -5 1.326016 -4.473168 2.597899 -3.535534 3.535534 
C -2.597899 4.473168 -1.326016 5 0 5 
z
" style="stroke: #268bd2"/>
    </defs>
    <g clip-path="url(#p106982caf1)">
     <use xlink:href="#m8d97e4feee" x="139.2903" y="272.462727" style="fill: #268bd2; stroke: #268bd2"/>
     <use xlink:href="#m8d97e4feee" x="155.186788" y="262.062125" style="fill: #268bd2; stroke: #268bd2"/>
     <use xlink:href="#m8d97e4feee" x="171.083276" y="256.68649" style="fill: #268bd2; stroke: #268bd2"/>
     <use xlink:href="#m8d97e4feee" x="186.979764" y="242.742907" style="fill: #268bd2; stroke: #268bd2"/>
     <use xlink:href="#m8d97e4feee" x="202.876251" y="235.095121" style="fill: #268bd2; stroke: #268bd2"/>
     <use xlink:href="#m8d97e4feee" x="218.772739" y="240.864179" style="fill: #268bd2; stroke: #268bd2"/>
     <use xlink:href="#m8d97e4feee" x="234.669227" y="237.668112" style="fill: #268bd2; stroke: #268bd2"/>
     <use xlink:href="#m8d97e4feee" x="250.565715" y="232.97852" style="fill: #268bd2; stroke: #268bd2"/>
     <use xlink:href="#m8d97e4feee" x="266.462203" y="211.523173" style="fill: #268bd2; stroke: #268bd2"/>
     <use xlink:href="#m8d97e4feee" x="282.358691" y="206.837963" style="fill: #268bd2; stroke: #268bd2"/>
     <use xlink:href="#m8d97e4feee" x="298.255179" y="195.428519" style="fill: #268bd2; stroke: #268bd2"/>
     <use xlink:href="#m8d97e4feee" x="314.151666" y="165.873086" style="fill: #268bd2; stroke: #268bd2"/>
     <use xlink:href="#m8d97e4feee" x="330.048154" y="153.240284" style="fill: #268bd2; stroke: #268bd2"/>
     <use xlink:href="#m8d97e4feee" x="345.944642" y="158.786682" style="fill: #268bd2; stroke: #268bd2"/>
     <use xlink:href="#m8d97e4feee" x="361.84113" y="149.671876" style="fill: #268bd2; stroke: #268bd2"/>
     <use xlink:href="#m8d97e4feee" x="377.737618" y="142.644097" style="fill: #268bd2; stroke: #268bd2"/>
     <use xlink:href="#m8d97e4feee" x="393.634106" y="116.175408" style="fill: #268bd2; stroke: #268bd2"/>
     <use xlink:href="#m8d97e4feee" x="409.530594" y="98.091848" style="fill: #268bd2; stroke: #268bd2"/>
     <use xlink:href="#m8d97e4feee" x="425.427081" y="95.225847" style="fill: #268bd2; stroke: #268bd2"/>
     <use xlink:href="#m8d97e4feee" x="441.323569" y="89.179578" style="fill: #268bd2; stroke: #268bd2"/>
     <use xlink:href="#m8d97e4feee" x="457.220057" y="87.543519" style="fill: #268bd2; stroke: #268bd2"/>
     <use xlink:href="#m8d97e4feee" x="473.116545" y="85.234242" style="fill: #268bd2; stroke: #268bd2"/>
     <use xlink:href="#m8d97e4feee" x="489.013033" y="80.466082" style="fill: #268bd2; stroke: #268bd2"/>
     <use xlink:href="#m8d97e4feee" x="504.909521" y="75.039035" style="fill: #268bd2; stroke: #268bd2"/>
     <use xlink:href="#m8d97e4feee" x="520.806008" y="61.945789" style="fill: #268bd2; stroke: #268bd2"/>
     <use xlink:href="#m8d97e4feee" x="536.702496" y="47.671308" style="fill: #268bd2; stroke: #268bd2"/>
     <use xlink:href="#m8d97e4feee" x="552.598984" y="49.409028" style="fill: #268bd2; stroke: #268bd2"/>
     <use xlink:href="#m8d97e4feee" x="568.495472" y="56.61161" style="fill: #268bd2; stroke: #268bd2"/>
     <use xlink:href="#m8d97e4feee" x="584.39196" y="51.179075" style="fill: #268bd2; stroke: #268bd2"/>
     <use xlink:href="#m8d97e4feee" x="600.288448" y="49.696879" style="fill: #268bd2; stroke: #268bd2"/>
    </g>
   </g>
   <g id="patch_4">
    <path d="M 106.7025 284.82 
L 106.7025 12.96 
" style="fill: none; stroke: #000000; stroke-linejoin: miter; stroke-linecap: square"/>
   </g>
   <g id="patch_5">
    <path d="M 823.634102 284.82 
L 823.634102 12.96 
" style="fill: none; stroke: #000000; stroke-linejoin: miter; stroke-linecap: square"/>
   </g>
   <g id="patch_6">
    <path d="M 106.7025 284.82 
L 823.634102 284.82 
" style="fill: none; stroke: #000000; stroke-linejoin: miter; stroke-linecap: square"/>
   </g>
   <g id="patch_7">
    <path d="M 106.7025 12.96 
L 823.634102 12.96 
" style="fill: none; stroke: #000000; stroke-linejoin: miter; stroke-linecap: square"/>
   </g>
   <g id="text_17">
    <!-- Reduce 41.2% Rollouts -->
    <g transform="translate(509.062874 37.225508) scale(0.25 -0.25)">
     <defs>
      <path id="DejaVuSerif-52" d="M 3066 2316 
Q 3284 2256 3442 2114 
Q 3600 1972 3725 1716 
L 4403 331 
L 4972 331 
L 4972 0 
L 3872 0 
L 3144 1484 
Q 2934 1916 2759 2042 
Q 2584 2169 2278 2169 
L 1581 2169 
L 1581 331 
L 2241 331 
L 2241 0 
L 353 0 
L 353 331 
L 947 331 
L 947 4331 
L 353 4331 
L 353 4666 
L 2719 4666 
Q 3400 4666 3770 4341 
Q 4141 4016 4141 3419 
Q 4141 2938 3870 2661 
Q 3600 2384 3066 2316 
z
M 1581 2503 
L 2503 2503 
Q 2975 2503 3200 2726 
Q 3425 2950 3425 3419 
Q 3425 3888 3200 4109 
Q 2975 4331 2503 4331 
L 1581 4331 
L 1581 2503 
z
" transform="scale(0.015625)"/>
      <path id="DejaVuSerif-75" d="M 2266 3322 
L 3341 3322 
L 3341 331 
L 3884 331 
L 3884 0 
L 2766 0 
L 2766 588 
Q 2606 256 2353 82 
Q 2100 -91 1766 -91 
Q 1213 -91 952 223 
Q 691 538 691 1209 
L 691 2988 
L 172 2988 
L 172 3322 
L 1269 3322 
L 1269 1388 
Q 1269 781 1417 556 
Q 1566 331 1947 331 
Q 2347 331 2556 625 
Q 2766 919 2766 1478 
L 2766 2988 
L 2266 2988 
L 2266 3322 
z
" transform="scale(0.015625)"/>
      <path id="DejaVuSerif-63" d="M 3291 997 
Q 3169 466 2822 187 
Q 2475 -91 1925 -91 
Q 1200 -91 759 389 
Q 319 869 319 1663 
Q 319 2459 759 2936 
Q 1200 3413 1925 3413 
Q 2241 3413 2553 3339 
Q 2866 3266 3181 3116 
L 3181 2266 
L 2847 2266 
Q 2781 2703 2561 2903 
Q 2341 3103 1931 3103 
Q 1466 3103 1228 2742 
Q 991 2381 991 1663 
Q 991 944 1227 581 
Q 1463 219 1931 219 
Q 2303 219 2525 412 
Q 2747 606 2828 997 
L 3291 997 
z
" transform="scale(0.015625)"/>
      <path id="DejaVuSerif-25" d="M 1434 4459 
Q 1159 4459 1004 4200 
Q 850 3941 850 3475 
Q 850 3016 1008 2753 
Q 1166 2491 1434 2491 
Q 1700 2491 1854 2752 
Q 2009 3013 2009 3475 
Q 2009 3938 1854 4198 
Q 1700 4459 1434 4459 
z
M 4653 2169 
Q 4381 2169 4226 1906 
Q 4072 1644 4072 1178 
Q 4072 719 4228 458 
Q 4384 197 4653 197 
Q 4922 197 5075 458 
Q 5228 719 5228 1178 
Q 5228 1641 5073 1905 
Q 4919 2169 4653 2169 
z
M 4653 2450 
Q 5147 2450 5437 2106 
Q 5728 1763 5728 1178 
Q 5728 594 5436 251 
Q 5144 -91 4653 -91 
Q 4153 -91 3862 251 
Q 3572 594 3572 1178 
Q 3572 1766 3864 2108 
Q 4156 2450 4653 2450 
z
M 4263 4750 
L 4738 4750 
L 1819 -91 
L 1344 -91 
L 4263 4750 
z
M 1428 4750 
Q 1922 4750 2215 4408 
Q 2509 4066 2509 3481 
Q 2509 2891 2217 2550 
Q 1925 2209 1428 2209 
Q 931 2209 642 2551 
Q 353 2894 353 3481 
Q 353 4063 643 4406 
Q 934 4750 1428 4750 
z
" transform="scale(0.015625)"/>
      <path id="DejaVuSerif-6f" d="M 1925 219 
Q 2388 219 2623 584 
Q 2859 950 2859 1663 
Q 2859 2375 2623 2739 
Q 2388 3103 1925 3103 
Q 1463 3103 1227 2739 
Q 991 2375 991 1663 
Q 991 950 1228 584 
Q 1466 219 1925 219 
z
M 1925 -91 
Q 1200 -91 759 389 
Q 319 869 319 1663 
Q 319 2456 758 2934 
Q 1197 3413 1925 3413 
Q 2653 3413 3092 2934 
Q 3531 2456 3531 1663 
Q 3531 869 3092 389 
Q 2653 -91 1925 -91 
z
" transform="scale(0.015625)"/>
      <path id="DejaVuSerif-6c" d="M 1313 331 
L 1856 331 
L 1856 0 
L 184 0 
L 184 331 
L 738 331 
L 738 4531 
L 184 4531 
L 184 4863 
L 1313 4863 
L 1313 331 
z
" transform="scale(0.015625)"/>
     </defs>
     <use xlink:href="#DejaVuSerif-52"/>
     <use xlink:href="#DejaVuSerif-65" transform="translate(75.292969 0)"/>
     <use xlink:href="#DejaVuSerif-64" transform="translate(134.472656 0)"/>
     <use xlink:href="#DejaVuSerif-75" transform="translate(198.486328 0)"/>
     <use xlink:href="#DejaVuSerif-63" transform="translate(262.890625 0)"/>
     <use xlink:href="#DejaVuSerif-65" transform="translate(318.896484 0)"/>
     <use xlink:href="#DejaVuSerif-20" transform="translate(378.076172 0)"/>
     <use xlink:href="#DejaVuSerif-34" transform="translate(409.863281 0)"/>
     <use xlink:href="#DejaVuSerif-31" transform="translate(473.486328 0)"/>
     <use xlink:href="#DejaVuSerif-2e" transform="translate(537.109375 0)"/>
     <use xlink:href="#DejaVuSerif-32" transform="translate(568.896484 0)"/>
     <use xlink:href="#DejaVuSerif-25" transform="translate(632.519531 0)"/>
     <use xlink:href="#DejaVuSerif-20" transform="translate(727.539062 0)"/>
     <use xlink:href="#DejaVuSerif-52" transform="translate(759.326172 0)"/>
     <use xlink:href="#DejaVuSerif-6f" transform="translate(834.619141 0)"/>
     <use xlink:href="#DejaVuSerif-6c" transform="translate(894.824219 0)"/>
     <use xlink:href="#DejaVuSerif-6c" transform="translate(926.806641 0)"/>
     <use xlink:href="#DejaVuSerif-6f" transform="translate(958.789062 0)"/>
     <use xlink:href="#DejaVuSerif-75" transform="translate(1018.994141 0)"/>
     <use xlink:href="#DejaVuSerif-74" transform="translate(1083.398438 0)"/>
     <use xlink:href="#DejaVuSerif-73" transform="translate(1123.583984 0)"/>
    </g>
   </g>
   <g id="legend_1">
    <g id="patch_8">
     <path d="M 126.3025 117.5575 
L 336.630625 117.5575 
Q 342.230625 117.5575 342.230625 111.9575 
L 342.230625 32.56 
Q 342.230625 26.96 336.630625 26.96 
L 126.3025 26.96 
Q 120.7025 26.96 120.7025 32.56 
L 120.7025 111.9575 
Q 120.7025 117.5575 126.3025 117.5575 
z
" style="fill: #ffffff; opacity: 0.8; stroke: #cccccc; stroke-linejoin: miter"/>
    </g>
    <g id="line2d_25">
     <path d="M 131.9025 49.635625 
L 159.9025 49.635625 
L 187.9025 49.635625 
" style="fill: none; stroke: #268bd2; stroke-opacity: 0.25; stroke-width: 5"/>
     <g>
      <use xlink:href="#m31678311ea" x="159.9025" y="49.635625" style="fill: #268bd2; fill-opacity: 0.25; stroke: #268bd2; stroke-opacity: 0.25"/>
     </g>
    </g>
    <g id="text_18">
     <!-- Baseline -->
     <g transform="translate(210.3025 59.435625) scale(0.28 -0.28)">
      <defs>
       <path id="DejaVuSerif-42" d="M 1581 331 
L 2516 331 
Q 3078 331 3337 575 
Q 3597 819 3597 1350 
Q 3597 1878 3339 2120 
Q 3081 2363 2516 2363 
L 1581 2363 
L 1581 331 
z
M 1581 2694 
L 2375 2694 
Q 2888 2694 3123 2891 
Q 3359 3088 3359 3513 
Q 3359 3941 3123 4136 
Q 2888 4331 2375 4331 
L 1581 4331 
L 1581 2694 
z
M 353 0 
L 353 331 
L 947 331 
L 947 4331 
L 353 4331 
L 353 4666 
L 2656 4666 
Q 3363 4666 3720 4377 
Q 4078 4088 4078 3513 
Q 4078 3097 3829 2850 
Q 3581 2603 3103 2547 
Q 3697 2472 4005 2167 
Q 4313 1863 4313 1350 
Q 4313 656 3875 328 
Q 3438 0 2509 0 
L 353 0 
z
" transform="scale(0.015625)"/>
      </defs>
      <use xlink:href="#DejaVuSerif-42"/>
      <use xlink:href="#DejaVuSerif-61" transform="translate(73.486328 0)"/>
      <use xlink:href="#DejaVuSerif-73" transform="translate(133.105469 0)"/>
      <use xlink:href="#DejaVuSerif-65" transform="translate(184.423828 0)"/>
      <use xlink:href="#DejaVuSerif-6c" transform="translate(243.603516 0)"/>
      <use xlink:href="#DejaVuSerif-69" transform="translate(275.585938 0)"/>
      <use xlink:href="#DejaVuSerif-6e" transform="translate(307.568359 0)"/>
      <use xlink:href="#DejaVuSerif-65" transform="translate(371.972656 0)"/>
     </g>
    </g>
    <g id="line2d_26">
     <path d="M 131.9025 90.734375 
L 159.9025 90.734375 
L 187.9025 90.734375 
" style="fill: none; stroke: #268bd2; stroke-width: 4"/>
     <g>
      <use xlink:href="#m8d97e4feee" x="159.9025" y="90.734375" style="fill: #268bd2; stroke: #268bd2"/>
     </g>
    </g>
    <g id="text_19">
     <!-- PREPO -->
     <g transform="translate(210.3025 100.534375) scale(0.28 -0.28)">
      <defs>
       <path id="DejaVuSerif-45" d="M 353 0 
L 353 331 
L 947 331 
L 947 4331 
L 353 4331 
L 353 4666 
L 4109 4666 
L 4109 3628 
L 3725 3628 
L 3725 4281 
L 1581 4281 
L 1581 2719 
L 3109 2719 
L 3109 3303 
L 3494 3303 
L 3494 1753 
L 3109 1753 
L 3109 2338 
L 1581 2338 
L 1581 384 
L 3775 384 
L 3775 1038 
L 4159 1038 
L 4159 0 
L 353 0 
z
" transform="scale(0.015625)"/>
       <path id="DejaVuSerif-4f" d="M 2625 244 
Q 3391 244 3781 770 
Q 4172 1297 4172 2328 
Q 4172 3363 3781 3889 
Q 3391 4416 2625 4416 
Q 1856 4416 1465 3889 
Q 1075 3363 1075 2328 
Q 1075 1297 1465 770 
Q 1856 244 2625 244 
z
M 2625 -91 
Q 2150 -91 1751 65 
Q 1353 222 1050 525 
Q 700 875 529 1319 
Q 359 1763 359 2328 
Q 359 2894 529 3339 
Q 700 3784 1050 4134 
Q 1356 4441 1750 4595 
Q 2144 4750 2625 4750 
Q 3641 4750 4266 4084 
Q 4891 3419 4891 2328 
Q 4891 1769 4719 1320 
Q 4547 872 4197 525 
Q 3891 219 3497 64 
Q 3103 -91 2625 -91 
z
" transform="scale(0.015625)"/>
      </defs>
      <use xlink:href="#DejaVuSerif-50"/>
      <use xlink:href="#DejaVuSerif-52" transform="translate(67.285156 0)"/>
      <use xlink:href="#DejaVuSerif-45" transform="translate(142.578125 0)"/>
      <use xlink:href="#DejaVuSerif-50" transform="translate(215.576172 0)"/>
      <use xlink:href="#DejaVuSerif-4f" transform="translate(282.861328 0)"/>
     </g>
    </g>
   </g>
  </g>
 </g>
 <defs>
  <clipPath id="p106982caf1">
   <rect x="106.7025" y="12.96" width="716.931602" height="271.86"/>
  </clipPath>
 </defs>
</svg>
